<?xml version="1.0" encoding="UTF-8" standalone="no"?>
<!-- Generator: Adobe Illustrator 23.0.3, SVG Export Plug-In . SVG Version: 6.00 Build 0)  -->

<svg
   xmlns:dc="http://purl.org/dc/elements/1.1/"
   xmlns:cc="http://creativecommons.org/ns#"
   xmlns:rdf="http://www.w3.org/1999/02/22-rdf-syntax-ns#"
   xmlns:svg="http://www.w3.org/2000/svg"
   xmlns="http://www.w3.org/2000/svg"
   xmlns:sodipodi="http://sodipodi.sourceforge.net/DTD/sodipodi-0.dtd"
   xmlns:inkscape="http://www.inkscape.org/namespaces/inkscape"
   version="1.1"
   id="Layer_1"
   x="0px"
   y="0px"
   viewBox="0 0 1628.9764 1628.9763"
   xml:space="preserve"
   sodipodi:docname="tiktok2025.svg"
   width="431mm"
   height="431mm"
   inkscape:version="0.92.5 (2060ec1f9f, 2020-04-08)"><metadata
   id="metadata29"><rdf:RDF><cc:Work
       rdf:about=""><dc:format>image/svg+xml</dc:format><dc:type
         rdf:resource="http://purl.org/dc/dcmitype/StillImage" /><dc:title></dc:title></cc:Work></rdf:RDF></metadata><defs
   id="defs27" /><sodipodi:namedview
   pagecolor="#ffffff"
   bordercolor="#666666"
   borderopacity="1"
   objecttolerance="10"
   gridtolerance="10"
   guidetolerance="10"
   inkscape:pageopacity="0"
   inkscape:pageshadow="2"
   inkscape:window-width="1848"
   inkscape:window-height="1016"
   id="namedview25"
   showgrid="false"
   fit-margin-top="0"
   fit-margin-left="0"
   fit-margin-right="0"
   fit-margin-bottom="0"
   units="mm"
   inkscape:zoom="0.30406267"
   inkscape:cx="464.13312"
   inkscape:cy="553.5651"
   inkscape:window-x="72"
   inkscape:window-y="27"
   inkscape:window-maximized="1"
   inkscape:current-layer="Layer_1" />
<style
   type="text/css"
   id="style2">
	.st0{fill:#EE1D52;}
	.st1{fill:#69C9D0;}
	.st2{fill:none;}
</style>
<g
   id="g6"
   transform="translate(-193.3011,2.5903465)">
	<path
   class="st0"
   d="m 248.8,1391.7 5.3,15.1 c -0.6,-1.7 -2.6,-7 -5.3,-15.1 z M 459.9,1050.4 C 469.3,969.5 501.1,924.2 561,877.7 646.8,814.8 753.9,850.4 753.9,850.4 V 639.2 c 26.1,-0.7 52.1,0.9 77.9,4.8 v 271.7 c 0,0 -107.1,-35.6 -192.9,27.4 -59.9,46.4 -91.8,91.8 -101.1,172.7 -0.3,43.9 7.6,101.4 44,151.1 -9,-4.8 -18.2,-10.3 -27.5,-16.5 -80.1,-56.2 -94.7,-140.4 -94.4,-200 z m 814.4,-801.5 c -59,-67.5 -81.3,-135.6 -89.4,-183.4 h 74.2 c 0,0 -14.8,125.5 93.1,248.9 l 1.5,1.7 c -29,-19.2 -55.7,-41.7 -79.4,-67.2 z m 357.6,191.3 v 266.2 c 0,0 -94.7,-3.9 -164.8,-22.5 -97.9,-26 -160.8,-65.9 -160.8,-65.9 0,0 -43.5,-28.5 -47,-30.4 v 549.8 c 0,30.6 -8,107.1 -32.5,170.8 -32,83.4 -81.3,138.2 -90.4,149.3 0,0 -60,74 -165.9,123.8 -95.4,45 -179.2,43.8 -204.3,45 0,0 -144.9,6 -275.2,-82.4 -28.2,-19.5 -54.5,-41.5 -78.6,-65.9 l 0.7,0.5 c 130.4,88.4 275.2,82.4 275.2,82.4 25.1,-1.1 108.9,0 204.3,-45 105.8,-49.8 165.9,-123.8 165.9,-123.8 9,-11.2 58.6,-65.9 90.4,-149.4 24.4,-63.7 32.5,-140.2 32.5,-170.8 V 522.1 c 3.5,2 46.9,30.5 46.9,30.5 0,0 62.9,39.9 160.8,65.9 70.2,18.7 164.9,22.5 164.9,22.5 V 432.4 c 32.4,7.6 60,9.7 77.9,7.8 z"
   id="path4"
   inkscape:connector-curvature="0"
   style="fill:#ee1d52" />
</g>
<path
   d="m 1360.6989,434.99035 v 208.6 c 0,0 -94.7,-3.9 -164.8,-22.5 -97.9,-26 -160.8,-65.9 -160.8,-65.9 0,0 -43.4,-28.5 -46.9,-30.5 v 549.79995 c 0,30.6 -8,107.1 -32.5,170.8 -32,83.4 -81.3,138.2 -90.4,149.4 0,0 -60.1,74 -165.9,123.8 -95.4,45 -179.2,43.8 -204.3,45 0,0 -144.8,6 -275.2,-82.4 l -0.7,-0.5 c -13.8,-13.9 -26.7,-28.6 -38.8,-44 -41.6,-52.9 -67.1,-115.5 -73.5,-133.4 0,-0.1 0,-0.2 0,-0.2 -10.300002,-31 -32.000002,-105.6 -29.000002,-177.7 5.2,-127.39995 48.200002,-205.49995 59.500002,-225.09995 30.1,-53.4 69.2,-101.2 115.6,-141.2 40.9,-34.5 87.4,-62 137.3,-81.3 54,-22.7 111.9,-34.8 170.5,-35.8 v 211.1 c 0,0 -107.2,-35.5 -192.9,27.3 -60,46.5 -91.8,91.8 -101.1,172.69995 -0.4,59.6 14.2,143.8 94.3,200.1 9.3,6.2 18.5,11.7 27.5,16.5 14,19 31,35.5 50.4,49 78.3,51.7 143.8,55.3 227.7,21.7 55.9,-22.4 98,-73 117.5,-129.1 12.3,-35 12.1,-70.2 12.1,-106.7 V 68.090346 h 195.2 c 8.1,47.900004 30.4,116.000004 89.4,183.400004 23.7,25.5 50.3,48 79.4,67.1 8.6,9.3 52.5,55.1 108.9,83.2 29.1,14.6 59.8,25.7 91.5,33.2 z"
   id="path8"
   inkscape:connector-curvature="0" />
<path
   class="st1"
   d="m 29.098898,1238.3903 v 0.2 l 4.8,13.7 c -0.5,-1.6 -2.3,-6.5 -4.8,-13.9 z"
   id="path10"
   inkscape:connector-curvature="0"
   style="fill:#69c9d0" />
<path
   class="st1"
   d="m 390.2989,677.59035 c -50,19.3 -96.4,46.8 -137.3,81.3 -46.4,40.1 -85.5,88 -115.5,141.5 -11.4,19.5 -54.300002,97.8 -59.500002,225.09995 -3,72.2 18.7,146.7 29.000002,177.7 0,0.1 0,0.2 0,0.2 6.5,17.7 31.9,80.3 73.5,133.4 12.1,15.4 25,30.1 38.8,44 -44.1,-30.5 -83.4,-67.4 -116.7,-109.4 -41.200002,-52.5 -66.700002,-114.4 -73.300002,-132.7 0,-0.1 0,-0.3 0,-0.4 v -0.2 c -10.3,-31 -32.0999998,-105.6 -28.99999976,-177.8 C 5.4988982,932.89035 48.498898,854.79035 59.798898,835.19035 c 30,-53.5 69.100002,-101.4 115.500002,-141.5 40.9,-34.6 87.4,-62 137.3,-81.3 31.2,-12.9 63.7,-22.5 96.9,-28.5 50.1,-8.7 101.2,-9.5 151.5,-2.2 v 60.2 c -58.8,0.9 -116.7,13.1 -170.7,35.7 z"
   id="path12"
   inkscape:connector-curvature="0"
   style="fill:#69c9d0" />
<path
   class="st1"
   d="m 991.5989,68.090346 h -195.1 V 1104.4903 c 0,36.4 0,71.6 -12.1,106.7 -19.7,56 -61.6,106.6 -117.5,129 -83.9,33.7 -149.5,30 -227.7,-21.7 -19.4,-13.4 -36.5,-29.9 -50.6,-48.8 66.7,35.6 126.3,34.9 200.2,5.3 55.9,-22.4 97.9,-73 117.5,-129.1 12.3,-35 12.1,-70.2 12.1,-106.6 V 2.5903465 h 269.5 c 0,0 -3,25.7999995 3.7,65.4999995 z m 369.1,309.200004 v 57.7 c -31.6,-7.5 -62.3,-18.7 -91.4,-33.2 -56.4,-28.1 -100.3,-74 -108.9,-83.2 10,6.5 20.3,12.5 31,17.8 68.5,34.2 136,44.4 169.3,40.9 z"
   id="path14"
   inkscape:connector-curvature="0"
   style="fill:#69c9d0" />




</svg>